<svg id="Livello_1" data-name="Livello 1" xmlns="http://www.w3.org/2000/svg" viewBox="0 0 1384.08 328.19"><path d="M463.54,466l40.2-135.47h68.61L466.6,641.67H405.42L300.1,330.53h68.61L410.22,466l26.66,102.69Z" transform="translate(-300.1 -323.54)"/><path d="M732.29,651.72q-60.31,0-95.49-28.4T600.31,545.1h63.37q1.3,25.78,19.23,39.76t48.94,14q26.65,0,41.95-10.27T789.1,560q0-15.29-10.93-23.38t-36.71-14.64l-57.24-14.42q-36.71-9.17-56.59-31.46T607.74,421q0-40.65,30.16-69.05,29.7-28.4,86.08-28.4t90,28q33.65,28.42,36.7,74.29H787.79q-3.07-23.15-20.11-36.27t-43.26-13.11q-23.59,0-37.58,10.49t-14,27.1q0,25.78,36.28,35l62,15.29Q856,484.8,856,553.83q0,45.46-33,71.67T732.29,651.72Z" transform="translate(-300.1 -323.54)"/><path d="M875.18,330.53h251.28v57.68h-93.08V641.67H968.7V388.21H875.18Z" transform="translate(-300.1 -323.54)"/><g id="_231f20ff" data-name="#231f20ff"><path d="M1287.72,374.9c69.07-30.93,146.3-45.11,221.81-38.2,71.59,7.69,132.23,59.34,160.7,124.07,17,30.14,17.69,66.92,6.33,99.16-9.36,24.38-34.9,35-52.06,52.79-22.92,24.65-57.56,31.61-89.43,36.37-70.33,8.48-139-19.15-209.26-13.55-23.91.57-51.65,8.42-71.53-9.21-25.8,16.59-58.82,35.37-88.64,16.22-18.37,4.81-43.8,10.88-56.94-7.22-8.84-12.61.06-26.58,7.07-37.41a113.41,113.41,0,0,1-30.19-69.5c.52-22.92-21.14-36.1-29.57-55.52-5.65-10.3-12.51-27.68.68-35.11,18.79-7.32,39.35-.15,58.24,3.67,27.73-32.39,70.33-46.31,111.77-48.88,8.27-17.37,14.29-37.88,31.09-49.19,18.26-3.24,23.65,18.95,29.93,31.51m-48.56,34.69c12.61,2.09,25.17,4.87,38,4.76-7.49-6.7-16.59-10.83-25.7-14.7,4.92-10.15,9.84-20.41,13.45-31.14-17.74,5.86-19.93,26.06-25.74,41.08m44.32-24c-.11,11.72,0,23.39-1,35.06,44.74,34.85,50.24,105.13,17,149.66-21.35,5.28-47.25,16.37-46,42.85,11.15-10.88,19.62-26.68,36.21-30,71.11-20,142.12,12.35,213.39,11,20.25-3.19,49.35-5.92,56.52-28.78-16.44,7-32.19,16.74-50.34,18.68-31.61,3.61-63-4-94-9.11-34.17-6.54-69.13-9.26-103.82-5.6,16.85-25.9,20.46-56.93,18.57-87.07,28.58-44.27,81.22-66.82,131.71-74,14.18-2.83,30.93.21,42-11.25C1438,393.89,1367.78,417.8,1326,470.45a123.9,123.9,0,0,0-29.57-50.4c-2.51-12.08-3.19-25.48-12.92-34.48m-206,64.26c-.79,2.35-2.25,7.12-3,9.52,7.8,2,15.6,4,23.34,6l-3.35,25.74c7.75-8.21,12.56-18.47,18-28.2a213.15,213.15,0,0,0-35-13.08M1264.59,522c10.67-11.88,26.06-21.25,30.87-37.26-15.7,6.28-31.45,18.68-30.87,37.26m-31.5,24.75c6.22,3,13,4.87,19.57,7-2.36,6.43-4.66,13-6.91,19.46,9.52-5.33,18.73-11.35,28.41-16.48-5.33-2.72-10.62-5.44-16-8.16.89-4.4,2.67-13.24,3.56-17.64-11.35-9.26-34,.63-28.67,15.86M1165,571.39c16.17-8.12,33-14.76,49.87-21.09-17.32-10-44.22,2.3-49.87,21.09M1132.67,605c14.91,18,40.34,18.84,61.85,19.15,11.72-1.52,28.26,2.46,33.91-11.2-13.08.06-26,1.63-39,1.83C1170,615,1151.77,607.23,1132.67,605Z" transform="translate(-300.1 -323.54)"/><path d="M1248.58,534.23Z" transform="translate(-300.1 -323.54)"/></g></svg>